<?xml version="1.0" encoding="utf-8"?>
<!-- Generator: Adobe Illustrator 23.1.0, SVG Export Plug-In . SVG Version: 6.00 Build 0)  -->
<svg version="1.1" id="barra_de_topo" xmlns="http://www.w3.org/2000/svg" x="0px"
	 y="0px" viewBox="0 0 377 74" style="enable-background:new 0 0 377 74;" xml:space="preserve">
<style type="text/css">
	.st0{fill:#FFFFFF;}
	.st1{fill-rule:evenodd;clip-rule:evenodd;fill:#FFFFFF;}
</style>
	<rect id="separador" x="157" y="49" class="st0" width="2" height="20"/>
	<path id="Laboratório_Associado" class="st1" d="M175.8,66.4h7.2v-1.6h-5.5v-11h-1.7V66.4z M192.1,66.4l0-6.3c0-0.9-0.3-1.8-1-2.4
	c-0.8-0.6-1.8-0.9-2.8-0.9c-0.7,0-1.4,0.1-2.1,0.3c-0.7,0.2-1.3,0.6-1.9,1l0.7,1.2c0.8-0.6,1.9-1,2.9-1c0.6,0,1.3,0.1,1.8,0.5
	c0.4,0.4,0.7,1,0.6,1.6v0.5h-3c-0.9,0-1.9,0.2-2.6,0.8c-0.6,0.5-1,1.2-0.9,2c0,0.5,0.1,1,0.4,1.5c0.3,0.5,0.7,0.8,1.2,1
	c0.5,0.3,1.1,0.4,1.7,0.4c1.3,0.1,2.5-0.4,3.3-1.4v1.3L192.1,66.4L192.1,66.4z M187.5,65c-0.5,0-1.1-0.1-1.5-0.4
	c-0.4-0.3-0.6-0.7-0.6-1.2c0-0.4,0.2-0.8,0.5-1.1c0.5-0.3,1.1-0.4,1.7-0.3h2.8v1c-0.1,0.6-0.5,1.2-1,1.5
	C188.9,64.9,188.2,65.1,187.5,65L187.5,65L187.5,65z M199.9,56.8c-0.7,0-1.5,0.2-2.1,0.5c-0.6,0.3-1.1,0.8-1.4,1.4V53h-1.7v13.4h1.7
	v-1.9c0.3,0.6,0.8,1.1,1.4,1.4c0.7,0.3,1.4,0.5,2.1,0.5c0.8,0,1.6-0.2,2.4-0.6c0.7-0.4,1.2-1,1.6-1.7c0.8-1.6,0.8-3.4,0-5
	c-0.4-0.7-0.9-1.3-1.6-1.7C201.6,57,200.8,56.8,199.9,56.8L199.9,56.8L199.9,56.8z M199.6,65c-0.6,0-1.1-0.1-1.6-0.4
	c-0.5-0.3-0.9-0.7-1.1-1.2c-0.6-1.1-0.6-2.4,0-3.5c0.3-0.5,0.7-0.9,1.1-1.2c0.5-0.3,1.1-0.4,1.6-0.4c0.6,0,1.1,0.1,1.6,0.4
	c0.5,0.3,0.9,0.7,1.1,1.2c0.3,0.5,0.4,1.1,0.4,1.7c0,0.6-0.1,1.2-0.4,1.7c-0.3,0.5-0.6,0.9-1.1,1.2C200.8,64.8,200.2,65,199.6,65
	L199.6,65L199.6,65z M210.6,56.8c-0.9,0-1.8,0.2-2.5,0.6c-0.7,0.4-1.3,1-1.7,1.7c-0.8,1.6-0.8,3.4,0,5c0.4,0.7,1,1.3,1.7,1.7
	c1.6,0.8,3.5,0.8,5.1,0c0.7-0.4,1.3-1,1.7-1.7c0.8-1.6,0.8-3.4,0-5c-0.4-0.7-1-1.3-1.7-1.7C212.4,57,211.5,56.8,210.6,56.8
	L210.6,56.8L210.6,56.8z M210.6,58.2c0.6,0,1.1,0.1,1.6,0.4c0.5,0.3,0.9,0.7,1.1,1.2c0.3,0.5,0.4,1.1,0.4,1.7c0,0.6-0.1,1.2-0.4,1.8
	c-0.3,0.5-0.6,0.9-1.1,1.2c-0.5,0.3-1.1,0.4-1.6,0.4c-0.6,0-1.2-0.1-1.7-0.4c-0.5-0.3-0.9-0.7-1.1-1.2c-0.3-0.5-0.4-1.2-0.4-1.8
	c0-0.6,0.1-1.2,0.4-1.7c0.3-0.5,0.7-0.9,1.1-1.2C209.4,58.4,210,58.2,210.6,58.2L210.6,58.2z M219.3,58.9v-2.1h-1.7v9.5h1.7v-5
	c0.1-1.7,1.5-3,3.2-2.9c0.1,0,0.1,0,0.2,0v-1.6c-0.7,0-1.4,0.2-2.1,0.5C220.1,57.7,219.6,58.2,219.3,58.9L219.3,58.9L219.3,58.9z
	 M231.1,66.4l0-6.3c0-0.9-0.3-1.8-1-2.4c-0.8-0.6-1.8-0.9-2.8-0.9c-0.7,0-1.4,0.1-2.1,0.3c-0.7,0.2-1.3,0.6-1.9,1l0.7,1.2
	c0.8-0.6,1.9-1,2.9-1c0.6,0,1.3,0.1,1.8,0.5c0.4,0.4,0.7,1,0.6,1.6v0.5h-3c-0.9,0-1.9,0.2-2.6,0.8c-0.6,0.5-1,1.2-0.9,2
	c0,0.5,0.1,1,0.4,1.5c0.3,0.5,0.7,0.8,1.2,1c0.5,0.3,1.1,0.4,1.7,0.4c1.3,0.1,2.5-0.4,3.3-1.4v1.3L231.1,66.4L231.1,66.4z M226.5,65
	c-0.5,0-1.1-0.1-1.5-0.4c-0.4-0.3-0.6-0.7-0.6-1.2c0-0.4,0.2-0.8,0.5-1.1c0.5-0.3,1.1-0.4,1.7-0.3h2.8v1c-0.1,0.6-0.5,1.2-1,1.5
	C227.9,64.9,227.2,65.1,226.5,65L226.5,65L226.5,65z M238.3,64.4c-0.4,0.3-1,0.4-1.5,0.4c-0.3,0-0.6-0.1-0.9-0.3
	c-0.2-0.3-0.3-0.7-0.3-1.1v-5h2.9v-1.3h-2.9v-2.6H234v2.6h-1.4v1.3h1.4v5.3c-0.1,0.7,0.2,1.5,0.7,2c0.5,0.5,1.2,0.7,1.8,0.7
	c0.8,0,1.6-0.3,2.2-0.7L238.3,64.4z M244.6,56.8c-0.9,0-1.8,0.2-2.5,0.6c-0.7,0.4-1.3,1-1.7,1.7c-0.8,1.6-0.8,3.4,0,5
	c0.4,0.7,1,1.3,1.7,1.7c1.6,0.8,3.5,0.8,5.1,0c0.7-0.4,1.3-1,1.7-1.7c0.8-1.6,0.8-3.4,0-5c-0.4-0.7-1-1.3-1.7-1.7
	C246.4,57,245.5,56.8,244.6,56.8L244.6,56.8L244.6,56.8z M244.6,58.2c0.6,0,1.1,0.1,1.6,0.4c0.5,0.3,0.9,0.7,1.1,1.2
	c0.3,0.5,0.4,1.1,0.4,1.7c0,0.6-0.1,1.2-0.4,1.8c-0.3,0.5-0.6,0.9-1.1,1.2c-0.5,0.3-1.1,0.4-1.6,0.4c-0.6,0-1.2-0.1-1.7-0.4
	c-0.5-0.3-0.9-0.7-1.1-1.2c-0.3-0.5-0.4-1.2-0.4-1.8c0-0.6,0.1-1.2,0.4-1.7c0.3-0.5,0.7-0.9,1.1-1.2C243.4,58.4,244,58.2,244.6,58.2
	L244.6,58.2z M243.7,55.2l1.4,0.2l2.2-1.8l-1.7-0.8L243.7,55.2z M253.3,58.9v-2.1h-1.7v9.5h1.7v-5c0.1-1.7,1.5-3,3.2-2.9
	c0.1,0,0.1,0,0.2,0v-1.6c-0.7,0-1.4,0.2-2.1,0.5C254.1,57.7,253.6,58.2,253.3,58.9L253.3,58.9L253.3,58.9z M258.6,66.4h1.7v-9.5
	h-1.7V66.4z M259.5,53c-0.3,0-0.6,0.1-0.7,0.3c-0.4,0.4-0.4,1.1,0,1.5c0.4,0.4,1.1,0.4,1.5,0c0.4-0.4,0.4-1.1,0-1.5
	C260,53.1,259.7,53,259.5,53L259.5,53L259.5,53z M267.6,56.8c-0.9,0-1.8,0.2-2.5,0.6c-0.7,0.4-1.3,1-1.7,1.7c-0.8,1.6-0.8,3.4,0,5
	c0.4,0.7,1,1.3,1.7,1.7c1.6,0.8,3.5,0.8,5.1,0c0.7-0.4,1.3-1,1.7-1.7c0.8-1.6,0.8-3.4,0-5c-0.4-0.7-1-1.3-1.7-1.7
	C269.4,57,268.5,56.8,267.6,56.8L267.6,56.8L267.6,56.8z M267.6,58.2c0.6,0,1.1,0.1,1.6,0.4c0.5,0.3,0.9,0.7,1.1,1.2
	c0.3,0.5,0.4,1.1,0.4,1.7c0,0.6-0.1,1.2-0.4,1.8c-0.3,0.5-0.6,0.9-1.1,1.2c-0.5,0.3-1.1,0.4-1.6,0.4c-0.6,0-1.2-0.1-1.7-0.4
	c-0.5-0.3-0.9-0.7-1.1-1.2c-0.3-0.5-0.4-1.2-0.4-1.8c0-0.6,0.1-1.2,0.4-1.7c0.3-0.5,0.7-0.9,1.1-1.2C266.4,58.4,267,58.2,267.6,58.2
	L267.6,58.2z M291,66.4l-5.6-12.6h-1.8l-5.6,12.6h1.8l1.3-3.1h6.6l1.3,3.1H291L291,66.4z M284.5,55.6l2.7,6.1h-5.3L284.5,55.6z
	 M297.8,58.9l0.6-1.3c-0.4-0.3-0.9-0.5-1.5-0.7c-0.6-0.2-1.1-0.2-1.7-0.2c-0.9,0-1.7,0.2-2.4,0.7c-0.7,0.5-1,1.2-1,2
	c0,0.5,0.1,1,0.4,1.4c0.3,0.4,0.6,0.6,1,0.8c0.5,0.2,1,0.4,1.6,0.5c0.6,0.2,1.1,0.4,1.6,0.6c0.3,0.2,0.5,0.6,0.5,1
	c0,0.4-0.2,0.7-0.5,0.9c-0.4,0.2-0.9,0.3-1.3,0.3c-0.6,0-1.2-0.1-1.7-0.3c-0.5-0.2-1-0.5-1.5-0.9l-0.6,1.2c0.5,0.4,1.1,0.8,1.7,1
	c0.7,0.2,1.4,0.3,2.1,0.3c0.9,0,1.8-0.2,2.5-0.7c1.1-0.8,1.3-2.4,0.6-3.5c-0.3-0.4-0.7-0.7-1.1-0.8c-0.5-0.2-1.1-0.4-1.6-0.6
	c-0.5-0.1-1.1-0.3-1.6-0.6c-0.3-0.2-0.5-0.5-0.5-0.9c0-0.3,0.2-0.7,0.5-0.9c0.4-0.2,0.8-0.3,1.2-0.3c0.5,0,0.9,0.1,1.4,0.2
	C297,58.5,297.4,58.7,297.8,58.9L297.8,58.9L297.8,58.9z M305.8,58.9l0.6-1.3c-0.4-0.3-0.9-0.5-1.5-0.7c-0.6-0.2-1.1-0.2-1.7-0.2
	c-0.9,0-1.7,0.2-2.4,0.7c-0.7,0.5-1,1.2-1,2c0,0.5,0.1,1,0.4,1.4c0.3,0.4,0.6,0.6,1,0.8c0.5,0.2,1,0.4,1.6,0.5
	c0.6,0.2,1.1,0.4,1.6,0.6c0.3,0.2,0.5,0.6,0.5,1c0,0.4-0.2,0.7-0.5,0.9c-0.4,0.2-0.9,0.3-1.3,0.3c-0.6,0-1.2-0.1-1.7-0.3
	c-0.5-0.2-1-0.5-1.5-0.9l-0.6,1.2c0.5,0.4,1.1,0.8,1.7,1c0.7,0.2,1.4,0.3,2.1,0.3c0.9,0,1.8-0.2,2.5-0.7c1.1-0.8,1.3-2.4,0.6-3.5
	c-0.3-0.4-0.7-0.7-1.1-0.8c-0.5-0.2-1.1-0.4-1.6-0.6c-0.5-0.1-1.1-0.3-1.6-0.6c-0.3-0.2-0.5-0.5-0.5-0.9c0-0.3,0.2-0.7,0.5-0.9
	c0.4-0.2,0.8-0.3,1.2-0.3c0.5,0,0.9,0.1,1.4,0.2C305,58.5,305.4,58.7,305.8,58.9L305.8,58.9L305.8,58.9z M312.6,56.8
	c-0.9,0-1.8,0.2-2.5,0.6c-0.7,0.4-1.3,1-1.7,1.7c-0.8,1.6-0.8,3.4,0,5c0.4,0.7,1,1.3,1.7,1.7c1.6,0.8,3.5,0.8,5.1,0
	c0.7-0.4,1.3-1,1.7-1.7c0.8-1.6,0.8-3.4,0-5c-0.4-0.7-1-1.3-1.7-1.7C314.4,57,313.5,56.8,312.6,56.8L312.6,56.8L312.6,56.8z
	 M312.6,58.2c0.6,0,1.1,0.1,1.6,0.4c0.5,0.3,0.9,0.7,1.1,1.2c0.3,0.5,0.4,1.1,0.4,1.7c0,0.6-0.1,1.2-0.4,1.8
	c-0.3,0.5-0.6,0.9-1.1,1.2c-0.5,0.3-1.1,0.4-1.6,0.4c-0.6,0-1.2-0.1-1.7-0.4c-0.5-0.3-0.9-0.7-1.1-1.2c-0.3-0.5-0.4-1.2-0.4-1.8
	c0-0.6,0.1-1.2,0.4-1.7c0.3-0.5,0.7-0.9,1.1-1.2C311.4,58.4,312,58.2,312.6,58.2C312.6,58.2,312.6,58.2,312.6,58.2z M326.3,59.4
	l0.9-1.2c-0.4-0.5-1-0.8-1.6-1.1c-0.7-0.3-1.4-0.4-2.2-0.4c-0.9,0-1.7,0.2-2.5,0.6c-0.7,0.4-1.3,1-1.7,1.7c-0.4,0.8-0.6,1.6-0.6,2.5
	c0,0.9,0.2,1.7,0.6,2.5c0.4,0.7,1,1.3,1.7,1.7c0.8,0.4,1.6,0.6,2.5,0.6c0.8,0,1.5-0.1,2.3-0.4c0.6-0.3,1.2-0.7,1.6-1.2l-1-1
	c-0.3,0.4-0.8,0.7-1.2,0.9c-0.5,0.2-1.1,0.3-1.7,0.3c-0.6,0-1.1-0.1-1.6-0.4c-0.5-0.3-0.9-0.7-1.1-1.2c-0.3-0.5-0.4-1.1-0.4-1.7
	c0-0.6,0.1-1.2,0.4-1.7c0.3-0.5,0.7-0.9,1.1-1.2c0.5-0.3,1.1-0.4,1.7-0.4C324.6,58.3,325.6,58.7,326.3,59.4L326.3,59.4L326.3,59.4z
	 M329.6,66.4h1.7v-9.5h-1.7V66.4z M330.5,53c-0.3,0-0.6,0.1-0.7,0.3c-0.4,0.4-0.4,1.1,0,1.5c0.4,0.4,1.1,0.4,1.5,0
	c0.4-0.4,0.4-1.1,0-1.5C331,53.1,330.7,53,330.5,53L330.5,53L330.5,53z M342.1,66.4l0-6.3c0-0.9-0.3-1.8-1-2.4
	c-0.8-0.6-1.8-0.9-2.8-0.9c-0.7,0-1.4,0.1-2.1,0.3c-0.7,0.2-1.3,0.6-1.9,1l0.7,1.2c0.8-0.6,1.9-1,2.9-1c0.6,0,1.3,0.1,1.8,0.5
	c0.4,0.4,0.7,1,0.6,1.6v0.5h-3c-0.9,0-1.9,0.2-2.6,0.8c-0.6,0.5-1,1.2-0.9,2c0,0.5,0.1,1,0.4,1.5c0.3,0.5,0.7,0.8,1.2,1
	c0.5,0.3,1.1,0.4,1.7,0.4c1.3,0.1,2.5-0.4,3.3-1.4v1.3L342.1,66.4L342.1,66.4z M337.5,65c-0.5,0-1.1-0.1-1.5-0.4
	c-0.4-0.3-0.6-0.7-0.6-1.2c0-0.4,0.2-0.8,0.5-1.1c0.5-0.3,1.1-0.4,1.7-0.3h2.8v1c-0.1,0.6-0.5,1.2-1,1.5
	C338.9,64.9,338.2,65.1,337.5,65L337.5,65L337.5,65z M351.8,53v5.7c-0.3-0.6-0.8-1.1-1.4-1.5c-0.7-0.3-1.4-0.5-2.1-0.5
	c-0.8,0-1.6,0.2-2.4,0.6c-0.7,0.4-1.2,1-1.6,1.7c-0.4,0.8-0.6,1.6-0.6,2.5c0,0.9,0.2,1.7,0.6,2.5c0.4,0.7,0.9,1.3,1.6,1.7
	c0.7,0.4,1.5,0.6,2.4,0.6c0.7,0,1.5-0.2,2.1-0.5c0.6-0.3,1.1-0.9,1.4-1.5v1.9h1.7V53H351.8z M348.6,65c-0.6,0-1.2-0.1-1.7-0.4
	c-0.5-0.3-0.9-0.7-1.1-1.2c-0.6-1.1-0.6-2.4,0-3.5c0.3-0.5,0.7-0.9,1.1-1.2c0.5-0.3,1.1-0.5,1.7-0.4c0.6,0,1.2,0.1,1.7,0.4
	c0.5,0.3,0.9,0.7,1.1,1.2c0.3,0.5,0.4,1.2,0.4,1.8c0,0.6-0.1,1.2-0.4,1.7c-0.3,0.5-0.7,0.9-1.1,1.2C349.8,64.9,349.2,65,348.6,65
	C348.6,65,348.6,65,348.6,65z M360.6,56.8c-0.9,0-1.8,0.2-2.5,0.6c-0.7,0.4-1.3,1-1.7,1.7c-0.8,1.6-0.8,3.4,0,5
	c0.4,0.7,1,1.3,1.7,1.7c1.6,0.8,3.5,0.8,5.1,0c0.7-0.4,1.3-1,1.7-1.7c0.8-1.6,0.8-3.4,0-5c-0.4-0.7-1-1.3-1.7-1.7
	C362.4,57,361.5,56.8,360.6,56.8L360.6,56.8L360.6,56.8z M360.6,58.2c0.6,0,1.1,0.1,1.6,0.4c0.5,0.3,0.9,0.7,1.1,1.2
	c0.3,0.5,0.4,1.1,0.4,1.7c0,0.6-0.1,1.2-0.4,1.8c-0.3,0.5-0.6,0.9-1.1,1.2c-0.5,0.3-1.1,0.4-1.6,0.4c-0.6,0-1.2-0.1-1.7-0.4
	c-0.5-0.3-0.9-0.7-1.1-1.2c-0.3-0.5-0.4-1.2-0.4-1.8c0-0.6,0.1-1.2,0.4-1.7c0.3-0.5,0.7-0.9,1.1-1.2C359.4,58.4,360,58.2,360.6,58.2
	L360.6,58.2z"/>
	<path class="st0" d="M1.7,53.6c0-1.4,1.1-2.5,2.5-2.5s2.5,1.1,2.5,2.5v0.8c0.7-1.7,1.9-3.2,3.3-3.2c1.5,0,2.4,1,2.4,2.4
	c0,1.3-0.8,2.1-1.8,2.3c-2.5,0.6-3.9,2.5-3.9,6v4.6c0,1.4-1.1,2.5-2.5,2.5s-2.5-1.1-2.5-2.5V53.6z M22.3,69c-5.2,0-9-3.7-9-9V60
	c0-4.9,3.5-9,8.6-9c5.8,0,8.3,4.7,8.3,8.3c0,1.4-1,2.4-2.3,2.4h-9.7c0.5,2.2,2,3.4,4.2,3.4c1.4,0,2.5-0.4,3.5-1.2
	c0.4-0.3,0.7-0.4,1.2-0.4c1.1,0,1.9,0.8,1.9,1.9c0,0.6-0.3,1.1-0.6,1.5C26.8,68.2,24.8,69,22.3,69z M25.5,58.6
	c-0.3-2.2-1.6-3.7-3.6-3.7c-2,0-3.4,1.5-3.7,3.7H25.5z M51.2,71.5c0,1.4-1.1,2.5-2.5,2.5c-1.4,0-2.5-1.1-2.5-2.5v-5.4
	c-1.2,1.6-2.8,2.8-5.4,2.8c-4,0-7.9-3.2-7.9-9v-0.1c0-5.8,3.8-9,7.9-9c2.6,0,4.2,1.2,5.4,2.6v0c0-1.3,1.1-2.4,2.5-2.4
	c1.4,0,2.5,1.1,2.5,2.5V71.5z M37.9,59.9L37.9,59.9c0,2.9,1.9,4.8,4.2,4.8s4.2-1.9,4.2-4.8v-0.1c0-2.9-1.9-4.8-4.2-4.8
	S37.9,57,37.9,59.9z M70.7,66.4c0,1.4-1.1,2.5-2.5,2.5s-2.5-1.1-2.5-2.5v-0.2c-1.1,1.5-2.6,2.8-5.1,2.8c-3.7,0-5.9-2.5-5.9-6.4v-9
	c0-1.4,1.1-2.5,2.5-2.5c1.4,0,2.5,1.1,2.5,2.5V61c0,2.3,1.1,3.5,3,3.5c1.9,0,3.1-1.2,3.1-3.5v-7.4c0-1.4,1.1-2.5,2.5-2.5
	s2.5,1.1,2.5,2.5V66.4z M75.4,53.6c0-1.4,1.1-2.5,2.5-2.5c1.4,0,2.5,1.1,2.5,2.5v12.8c0,1.4-1.1,2.5-2.5,2.5c-1.4,0-2.5-1.1-2.5-2.5
	V53.6z M84.9,53.6c0-1.4,1.1-2.5,2.5-2.5c1.4,0,2.5,1.1,2.5,2.5v0.2c1.1-1.5,2.6-2.8,5.1-2.8c2.3,0,4,1,4.9,2.7
	c1.5-1.8,3.3-2.7,5.7-2.7c3.6,0,5.9,2.2,5.9,6.4v9c0,1.4-1.1,2.5-2.5,2.5c-1.4,0-2.5-1.1-2.5-2.5V59c0-2.3-1-3.5-2.9-3.5
	c-1.8,0-3,1.2-3,3.5v7.4c0,1.4-1.1,2.5-2.5,2.5c-1.4,0-2.5-1.1-2.5-2.5V59c0-2.3-1-3.5-2.9-3.5c-1.8,0-3,1.2-3,3.5v7.4
	c0,1.4-1.1,2.5-2.5,2.5c-1.4,0-2.5-1.1-2.5-2.5V53.6z M116.4,63.7v-8.2h-0.2c-1.2,0-2.1-0.9-2.1-2.1c0-1.2,0.9-2.1,2.1-2.1h0.2v-2.2
	c0-1.4,1.1-2.5,2.5-2.5c1.4,0,2.5,1.1,2.5,2.5v2.2h2.2c1.2,0,2.1,0.9,2.1,2.1c0,1.2-0.9,2.1-2.1,2.1h-2.2v7.4c0,1.1,0.5,1.7,1.6,1.7
	c0.2,0,0.5,0,0.6,0c1.1,0,2,0.9,2,2c0,0.9-0.6,1.6-1.3,1.8c-0.9,0.4-1.7,0.5-2.8,0.5C118.4,68.9,116.4,67.7,116.4,63.7z M136.7,69
	c-5.2,0-9-3.7-9-9V60c0-4.9,3.5-9,8.6-9c5.8,0,8.3,4.7,8.3,8.3c0,1.4-1,2.4-2.3,2.4h-9.7c0.5,2.2,2,3.4,4.2,3.4
	c1.4,0,2.5-0.4,3.5-1.2c0.4-0.3,0.7-0.4,1.2-0.4c1.1,0,1.9,0.8,1.9,1.9c0,0.6-0.3,1.1-0.6,1.5C141.2,68.2,139.2,69,136.7,69z
	 M139.9,58.6c-0.3-2.2-1.6-3.7-3.6-3.7c-2,0-3.4,1.5-3.7,3.7H139.9z"/>
	<path class="st0" d="M134.4,15.2l-13.6,23.6c-1.4,2.4-3.9,3.8-6.6,3.8c-2.7,0-5.3-1.5-6.6-3.8l-5.8-10.1c-0.3,1.8-0.8,3.7-1.6,5.4
	c-1.2,2.9-3,5.5-5.2,7.7c-1.1,1.1-2.9,1.1-3.9,0c-1.1-1.1-1.1-2.9,0-3.9c1.7-1.7,3.1-3.7,4-5.9c1-2.3,1.5-4.8,1.5-7.3
	c0-0.6,0-1.1-0.1-1.7c-0.4-3.9-2.1-7.5-4.9-10.3c0,0,0,0,0,0C88.6,9.6,84.7,8,80.6,8c0,0,0,0,0,0C77,8,73.6,9.4,71,12c0,0,0,0-0.1,0
	c-2.2,2.3-3.5,5.2-3.5,8.4c0,2.8,1.1,5.3,3,7.3c0,0,0,0,0,0c1.6,1.6,3.8,2.5,6.1,2.5c0,0,0,0,0,0c1.9,0,3.6-0.7,4.9-2
	c1.1-1.1,2.9-1.1,3.9,0c1.1,1.1,1.1,2.9,0,3.9c-2.4,2.4-5.5,3.7-8.9,3.7c0,0,0,0,0,0c-3.8,0-7.3-1.5-10-4.2c0,0,0,0,0,0
	c-3-3-4.7-7-4.7-11.2c0-3.2,0.9-6.3,2.4-9c-1.6,1.7-2.9,3.6-3.8,5.7c-1,2.3-1.5,4.8-1.5,7.3s0.5,5,1.5,7.3c0.2,0.5,0.5,1,0.7,1.5
	l0.3,0.6c0,0,0,0,0,0.1c0.8,1.4,1.8,2.6,2.9,3.8c1.7,1.7,3.7,3.1,6,4c1.4,0.6,2.1,2.2,1.5,3.7c-0.5,1.1-1.5,1.7-2.6,1.7
	c-0.4,0-0.7-0.1-1.1-0.2c-2.9-1.2-5.5-3-7.7-5.2c-1.7-1.7-3.1-3.6-4.2-5.7L43.2,13.2c-0.4-0.6-1.1-1-1.8-1c-0.7,0-1.4,0.4-1.8,1
	L25.9,36.7c-0.8,1.3-2.5,1.8-3.8,1c-1.3-0.8-1.8-2.5-1-3.8l13.6-23.6c1.4-2.4,3.9-3.8,6.6-3.8c2.7,0,5.3,1.5,6.6,3.8l5.8,10.1
	c0.3-1.8,0.8-3.7,1.6-5.4c1.2-2.9,3-5.5,5.2-7.7c2.2-2.2,4.8-4,7.7-5.2c3-1.3,6.2-1.9,9.5-1.9s6.5,0.6,9.5,1.9
	c2.9,1.2,5.5,3,7.7,5.2c1.6,1.6,3,3.4,4.1,5.4l13.4,23.1c0.4,0.6,1.1,1,1.8,1c0.7,0,1.4-0.4,1.8-1l13.6-23.6c0.8-1.3,2.5-1.8,3.8-1
	C134.8,12.1,135.2,13.8,134.4,15.2z M77.8,43.3c-1.5,0-2.8,1.2-2.8,2.8s1.2,2.8,2.8,2.8c1.5,0,2.8-1.2,2.8-2.8S79.3,43.3,77.8,43.3z
	 M15.8,32.6H7.3c-0.6,0-1-0.5-1-1V9.4c0-1.5-1.2-2.8-2.8-2.8S0.7,7.8,0.7,9.4v22.2c0,3.6,3,6.6,6.6,6.6h8.5c1.5,0,2.8-1.2,2.8-2.8
	S17.3,32.6,15.8,32.6z"/>
</svg>
