<?xml version="1.0" encoding="UTF-8" standalone="no"?>
<!-- Created with Inkscape (http://www.inkscape.org/) -->

<svg
        xmlns:dc="http://purl.org/dc/elements/1.1/"
        xmlns:cc="http://creativecommons.org/ns#"
        xmlns:rdf="http://www.w3.org/1999/02/22-rdf-syntax-ns#"
        xmlns:sodipodi="http://sodipodi.sourceforge.net/DTD/sodipodi-0.dtd"
        xmlns:inkscape="http://www.inkscape.org/namespaces/inkscape"
        xmlns="http://www.w3.org/2000/svg"
        width="615.27661"
        height="249.71844"
        viewBox="0 0 461.45758 187.28907"
        id="svg2"
        version="1.1"
        inkscape:version="0.92.1 r15371"
        sodipodi:docname="singGrey.svg">
  <defs
          id="defs4"/>
  <sodipodi:namedview
          id="base"
          pagecolor="#ffffff"
          bordercolor="#666666"
          borderopacity="1.0"
          showgrid="false"
          fit-margin-top="0"
          fit-margin-left="0"
          fit-margin-right="0"
          fit-margin-bottom="0"
          inkscape:zoom="0.75642366"
          inkscape:cx="221.43649"
          inkscape:cy="147.94865"
          inkscape:window-width="1920"
          inkscape:window-height="1017"
          inkscape:window-x="-8"
          inkscape:window-y="-8"
          inkscape:window-maximized="1"
          inkscape:current-layer="layer1"/>
  <metadata
          id="metadata7">
    <rdf:RDF>
      <cc:Work
              rdf:about="">
        <dc:format>image/svg+xml</dc:format>
        <dc:type
                rdf:resource="http://purl.org/dc/dcmitype/StillImage"/>
        <dc:title></dc:title>
      </cc:Work>
    </rdf:RDF>
  </metadata>
  <g
          inkscape:label="Capa 1"
          inkscape:groupmode="layer"
          id="layer1"
          transform="translate(-140.73795,-410.14622)">
    <g
            id="g2987"
            style="fill:#ffffff"
            transform="translate(135.71274,405.11067)">
      <g
              transform="translate(-138.625,-36.077)"
              style="font-size:39.14300156px;font-family:'Bitstream Vera Sans';fill:#ffffff"
              id="text2989">
        <path
                d="m 162.03533,192.14465 h 3.70788 v 16.18853 q 0,4.22393 -0.95564,6.70859 -0.95564,2.48467 -3.45942,4.05192 -2.48466,1.54813 -6.53657,1.54813 -3.93724,0 -6.44101,-1.35701 -2.50378,-1.35701 -3.5741,-3.91812 -1.07031,-2.58023 -1.07031,-7.03351 v -16.18853 h 3.70788 v 16.16942 q 0,3.65054 0.66895,5.38981 0.68806,1.72015 2.33176,2.65668 1.66281,0.93652 4.05191,0.93652 4.09014,0 5.8294,-1.85394 1.73927,-1.85394 1.73927,-7.12907 z"
                style="font-family:Arial;-inkscape-font-specification:Arial;fill:#ffffff"
                id="path4138"
                inkscape:connector-curvature="0"/>
        <path
                d="m 171.49616,227.94291 v -28.0767 h 3.1345 v 2.63757 q 1.10854,-1.54814 2.50377,-2.31265 1.39524,-0.78362 3.38297,-0.78362 2.59934,0 4.58707,1.33789 1.98773,1.3379 3.00071,3.78434 1.01297,2.42732 1.01297,5.33247 0,3.11538 -1.12765,5.61916 -1.10854,2.48466 -3.24918,3.82256 -2.12152,1.31878 -4.47239,1.31878 -1.72015,0 -3.09627,-0.72629 -1.35701,-0.72628 -2.2362,-1.83483 v 9.88132 z m 3.11538,-17.81313 q 0,3.91813 1.58637,5.79118 1.58636,1.87306 3.84167,1.87306 2.29353,0 3.91812,-1.9304 1.6437,-1.9495 1.6437,-6.02053 0,-3.87989 -1.60547,-5.81029 -1.58637,-1.93039 -3.80345,-1.93039 -2.19797,0 -3.89901,2.06418 -1.68193,2.04507 -1.68193,5.96319 z"
                style="font-family:Arial;-inkscape-font-specification:Arial;fill:#ffffff"
                id="path4140"
                inkscape:connector-curvature="0"/>
        <path
                d="m 192.65402,221.84593 3.34474,0.49693 q 0.21024,1.54814 1.16588,2.25531 1.28056,0.95564 3.49764,0.95564 2.3891,0 3.68877,-0.95564 1.29967,-0.95564 1.75838,-2.67579 0.26758,-1.05121 0.24847,-4.41506 -2.25531,2.65668 -5.61917,2.65668 -4.1857,0 -6.47923,-3.01982 -2.29354,-3.01982 -2.29354,-7.24375 0,-2.90514 1.05121,-5.35158 1.0512,-2.46555 3.03893,-3.80345 2.00684,-1.33789 4.70175,-1.33789 3.5932,0 5.92496,2.90514 v -2.44644 h 3.17273 v 17.54555 q 0,4.73997 -0.97476,6.70859 -0.95564,1.98773 -3.05804,3.1345 -2.0833,1.14677 -5.14134,1.14677 -3.63144,0 -5.86763,-1.6437 -2.2362,-1.62459 -2.15975,-4.91199 z m 2.84781,-12.19397 q 0,3.99458 1.58636,5.82941 1.58636,1.83483 3.97546,1.83483 2.36999,0 3.97546,-1.81572 1.60548,-1.83483 1.60548,-5.73384 0,-3.72699 -1.66282,-5.61916 -1.6437,-1.89217 -3.97546,-1.89217 -2.29353,0 -3.89901,1.87306 -1.60547,1.85394 -1.60547,5.52359 z"
                style="font-family:Arial;-inkscape-font-specification:Arial;fill:#ffffff"
                id="path4142"
                inkscape:connector-curvature="0"/>
        <path
                d="m 215.0351,220.164 v -20.29779 h 3.09628 v 3.07716 q 1.18499,-2.15974 2.17886,-2.8478 1.01297,-0.68806 2.21708,-0.68806 1.73926,0 3.53587,1.10854 l -1.185,3.19184 q -1.26144,-0.7454 -2.52289,-0.7454 -1.12765,0 -2.02595,0.68806 -0.8983,0.66895 -1.28056,1.87305 -0.57338,1.83483 -0.57338,4.01369 V 220.164 Z"
                style="font-family:Arial;-inkscape-font-specification:Arial;fill:#ffffff"
                id="path4144"
                inkscape:connector-curvature="0"/>
        <path
                d="m 241.39165,217.66023 q -1.91128,1.62458 -3.68877,2.29353 -1.75838,0.66895 -3.78434,0.66895 -3.34473,0 -5.14134,-1.62459 -1.7966,-1.6437 -1.7966,-4.1857 0,-1.4908 0.66895,-2.71402 0.68806,-1.24233 1.77749,-1.98773 1.10854,-0.7454 2.48466,-1.12765 1.01298,-0.26758 3.05805,-0.51605 4.16659,-0.49693 6.1352,-1.18499 0.0191,-0.70717 0.0191,-0.8983 0,-2.10241 -0.97475,-2.96249 -1.31879,-1.16588 -3.91813,-1.16588 -2.42732,0 -3.5932,0.86008 -1.14677,0.84096 -1.70104,3.00071 l -3.36385,-0.45871 q 0.4587,-2.15974 1.50991,-3.47853 1.0512,-1.33789 3.03893,-2.04507 1.98773,-0.72628 4.60619,-0.72628 2.59934,0 4.22392,0.61161 1.62459,0.61161 2.3891,1.54813 0.76451,0.91742 1.07032,2.33176 0.17201,0.87919 0.17201,3.17273 v 4.58707 q 0,4.79731 0.21024,6.07787 0.22936,1.26144 0.87919,2.42732 h -3.5932 q -0.53516,-1.07031 -0.68806,-2.50377 z m -0.2867,-7.68335 q -1.87305,0.76451 -5.61916,1.29967 -2.12152,0.30581 -3.00071,0.68806 -0.87918,0.38226 -1.357,1.12766 -0.47782,0.72628 -0.47782,1.62459 0,1.37612 1.03209,2.29353 1.0512,0.91741 3.05804,0.91741 1.98774,0 3.53587,-0.86007 1.54814,-0.87919 2.27442,-2.3891 0.55427,-1.16588 0.55427,-3.4403 z"
                style="font-family:Arial;-inkscape-font-specification:Arial;fill:#ffffff"
                id="path4146"
                inkscape:connector-curvature="0"/>
        <path
                d="m 263.10379,220.164 v -2.56111 q -1.9304,3.01982 -5.6765,3.01982 -2.42733,0 -4.4724,-1.3379 -2.02595,-1.33789 -3.15361,-3.72699 -1.10854,-2.40821 -1.10854,-5.5236 0,-3.03893 1.01298,-5.50448 1.01297,-2.48467 3.03893,-3.80345 2.02596,-1.31878 4.52973,-1.31878 1.83483,0 3.26829,0.78362 1.43346,0.76451 2.33176,2.00685 v -10.05333 h 3.42119 V 220.164 Z m -10.87518,-10.12978 q 0,3.89901 1.6437,5.8294 1.6437,1.9304 3.87989,1.9304 2.25531,0 3.82256,-1.83483 1.58636,-1.85394 1.58636,-5.63828 0,-4.16659 -1.60547,-6.11609 -1.60548,-1.94951 -3.95635,-1.94951 -2.29353,0 -3.84167,1.87306 -1.52902,1.87305 -1.52902,5.90585 z"
                style="font-family:Arial;-inkscape-font-specification:Arial;fill:#ffffff"
                id="path4148"
                inkscape:connector-curvature="0"/>
        <path
                d="m 271.74277,196.10099 v -3.95634 h 3.44031 v 3.95634 z m 0,24.06301 v -20.29779 h 3.44031 V 220.164 Z"
                style="font-family:Arial;-inkscape-font-specification:Arial;fill:#ffffff"
                id="path4150"
                inkscape:connector-curvature="0"/>
        <path
                d="m 280.43908,220.164 v -20.29779 h 3.09628 v 2.88604 q 2.23619,-3.34474 6.46012,-3.34474 1.83483,0 3.36385,0.66895 1.54814,0.64983 2.31265,1.72015 0.76451,1.07031 1.07032,2.542 0.19112,0.95564 0.19112,3.34474 V 220.164 h -3.4403 v -12.34686 q 0,-2.10241 -0.40137,-3.1345 -0.40137,-1.05121 -1.43346,-1.66281 -1.01297,-0.63073 -2.3891,-0.63073 -2.19797,0 -3.80344,1.39524 -1.58636,1.39523 -1.58636,5.29424 V 220.164 Z"
                style="font-family:Arial;-inkscape-font-specification:Arial;fill:#ffffff"
                id="path4152"
                inkscape:connector-curvature="0"/>
        <path
                d="m 301.59695,221.84593 3.34474,0.49693 q 0.21024,1.54814 1.16588,2.25531 1.28056,0.95564 3.49764,0.95564 2.3891,0 3.68877,-0.95564 1.29967,-0.95564 1.75838,-2.67579 0.26758,-1.05121 0.24846,-4.41506 -2.25531,2.65668 -5.61916,2.65668 -4.1857,0 -6.47923,-3.01982 -2.29354,-3.01982 -2.29354,-7.24375 0,-2.90514 1.0512,-5.35158 1.05121,-2.46555 3.03894,-3.80345 2.00684,-1.33789 4.70175,-1.33789 3.5932,0 5.92496,2.90514 v -2.44644 h 3.17272 v 17.54555 q 0,4.73997 -0.97475,6.70859 -0.95564,1.98773 -3.05804,3.1345 -2.0833,1.14677 -5.14135,1.14677 -3.63143,0 -5.86762,-1.6437 -2.2362,-1.62459 -2.15975,-4.91199 z m 2.84781,-12.19397 q 0,3.99458 1.58636,5.82941 1.58636,1.83483 3.97546,1.83483 2.36999,0 3.97546,-1.81572 1.60548,-1.83483 1.60548,-5.73384 0,-3.72699 -1.66282,-5.61916 -1.6437,-1.89217 -3.97546,-1.89217 -2.29353,0 -3.89901,1.87306 -1.60547,1.85394 -1.60547,5.52359 z"
                style="font-family:Arial;-inkscape-font-specification:Arial;fill:#ffffff"
                id="path4154"
                inkscape:connector-curvature="0"/>
        <path
                d="m 334.71942,227.98113 -0.38225,-3.23006 q 1.12765,0.30581 1.96862,0.30581 1.14676,0 1.83482,-0.38226 0.68806,-0.38226 1.12766,-1.07032 0.32492,-0.51604 1.0512,-2.56111 0.0956,-0.28669 0.30581,-0.84096 l -7.70246,-20.33602 h 3.70788 l 4.22393,11.75437 q 0.82185,2.2362 1.47169,4.70175 0.59249,-2.36999 1.41434,-4.6253 l 4.33861,-11.83082 h 3.4403 l -7.72157,20.64182 q -1.24233,3.34474 -1.93039,4.60619 -0.91742,1.70103 -2.10241,2.48466 -1.18499,0.80274 -2.82869,0.80274 -0.99387,0 -2.21709,-0.42049 z"
                style="font-family:Arial;-inkscape-font-specification:Arial;fill:#ffffff"
                id="path4156"
                inkscape:connector-curvature="0"/>
        <path
                d="m 353.16327,210.01511 q 0,-5.63828 3.1345,-8.35229 2.61845,-2.25531 6.38367,-2.25531 4.1857,0 6.84238,2.75224 2.65668,2.73313 2.65668,7.56867 0,3.91812 -1.18499,6.17343 -1.16588,2.2362 -3.42119,3.47853 -2.2362,1.24233 -4.89288,1.24233 -4.26215,0 -6.89972,-2.73313 -2.61845,-2.73313 -2.61845,-7.87447 z m 3.53587,0 q 0,3.89901 1.70104,5.84851 1.70104,1.9304 4.28126,1.9304 2.56112,0 4.26216,-1.94951 1.70103,-1.9495 1.70103,-5.94408 0,-3.76522 -1.72015,-5.69561 -1.70104,-1.94951 -4.24304,-1.94951 -2.58022,0 -4.28126,1.9304 -1.70104,1.93039 -1.70104,5.8294 z"
                style="font-family:Arial;-inkscape-font-specification:Arial;fill:#ffffff"
                id="path4158"
                inkscape:connector-curvature="0"/>
        <path
                d="m 389.53492,220.164 v -2.98159 q -2.36998,3.4403 -6.44101,3.4403 -1.7966,0 -3.36385,-0.68806 -1.54814,-0.68806 -2.31265,-1.72015 -0.7454,-1.05121 -1.0512,-2.56112 -0.21024,-1.01298 -0.21024,-3.21095 v -12.57622 h 3.4403 v 11.25744 q 0,2.6949 0.21024,3.63143 0.32492,1.35701 1.37612,2.14063 1.05121,0.76452 2.59934,0.76452 1.54814,0 2.90515,-0.78363 1.357,-0.80274 1.91128,-2.15974 0.57338,-1.37613 0.57338,-3.97547 v -10.87518 h 3.4403 V 220.164 Z"
                style="font-family:Arial;-inkscape-font-specification:Arial;fill:#ffffff"
                id="path4160"
                inkscape:connector-curvature="0"/>
        <path
                d="m 397.98277,220.164 v -20.29779 h 3.09627 v 3.07716 q 1.18499,-2.15974 2.17886,-2.8478 1.01298,-0.68806 2.21708,-0.68806 1.73927,0 3.53587,1.10854 l -1.18499,3.19184 q -1.26145,-0.7454 -2.52289,-0.7454 -1.12766,0 -2.02596,0.68806 -0.8983,0.66895 -1.28056,1.87305 -0.57338,1.83483 -0.57338,4.01369 V 220.164 Z"
                style="font-family:Arial;-inkscape-font-specification:Arial;fill:#ffffff"
                id="path4162"
                inkscape:connector-curvature="0"/>
        <path
                d="m 421.96934,220.164 v -28.01935 h 3.4403 v 15.97829 l 8.14205,-8.25673 h 4.45328 l -7.7598,7.53045 8.54342,12.76734 h -4.24304 l -6.70859,-10.37825 -2.42732,2.33177 v 8.04648 z"
                style="font-family:Arial;-inkscape-font-specification:Arial;fill:#ffffff"
                id="path4164"
                inkscape:connector-curvature="0"/>
        <path
                d="m 441.52172,220.164 v -20.29779 h 3.09628 v 2.88604 q 2.23619,-3.34474 6.46012,-3.34474 1.83483,0 3.36385,0.66895 1.54814,0.64983 2.31265,1.72015 0.76451,1.07031 1.07032,2.542 0.19113,0.95564 0.19113,3.34474 V 220.164 h -3.44031 v -12.34686 q 0,-2.10241 -0.40137,-3.1345 -0.40136,-1.05121 -1.43346,-1.66281 -1.01297,-0.63073 -2.38909,-0.63073 -2.19798,0 -3.80345,1.39524 -1.58636,1.39523 -1.58636,5.29424 V 220.164 Z"
                style="font-family:Arial;-inkscape-font-specification:Arial;fill:#ffffff"
                id="path4166"
                inkscape:connector-curvature="0"/>
        <path
                d="m 462.02974,210.01511 q 0,-5.63828 3.1345,-8.35229 2.61845,-2.25531 6.38367,-2.25531 4.18571,0 6.84238,2.75224 2.65668,2.73313 2.65668,7.56867 0,3.91812 -1.18499,6.17343 -1.16588,2.2362 -3.42119,3.47853 -2.2362,1.24233 -4.89288,1.24233 -4.26215,0 -6.89972,-2.73313 -2.61845,-2.73313 -2.61845,-7.87447 z m 3.53587,0 q 0,3.89901 1.70104,5.84851 1.70104,1.9304 4.28126,1.9304 2.56112,0 4.26216,-1.94951 1.70103,-1.9495 1.70103,-5.94408 0,-3.76522 -1.72015,-5.69561 -1.70104,-1.94951 -4.24304,-1.94951 -2.58022,0 -4.28126,1.9304 -1.70104,1.93039 -1.70104,5.8294 z"
                style="font-family:Arial;-inkscape-font-specification:Arial;fill:#ffffff"
                id="path4168"
                inkscape:connector-curvature="0"/>
        <path
                d="m 488.84498,220.164 -6.21166,-20.29779 h 3.55498 l 3.23006,11.71615 1.20411,4.35771 q 0.0764,-0.32491 1.0512,-4.1857 l 3.23007,-11.88816 h 3.53586 l 3.03894,11.77349 1.01298,3.87989 1.16588,-3.91812 3.47852,-11.73526 h 3.34474 l -6.34544,20.29779 h -3.5741 l -3.23006,-12.15574 -0.78362,-3.45941 -4.10925,15.61515 z"
                style="font-family:Arial;-inkscape-font-specification:Arial;fill:#ffffff"
                id="path4170"
                inkscape:connector-curvature="0"/>
        <path
                d="m 513.38583,220.164 v -28.01935 h 3.4403 V 220.164 Z"
                style="font-family:Arial;-inkscape-font-specification:Arial;fill:#ffffff"
                id="path4172"
                inkscape:connector-curvature="0"/>
        <path
                d="m 536.0727,213.62743 3.55498,0.43959 q -0.84096,3.11539 -3.11538,4.83554 -2.27443,1.72015 -5.81029,1.72015 -4.45328,0 -7.07174,-2.73313 -2.59934,-2.75224 -2.59934,-7.70246 0,-5.12223 2.63757,-7.95092 2.63756,-2.82869 6.84238,-2.82869 4.07102,0 6.65125,2.77135 2.58023,2.77136 2.58023,7.79802 0,0.30581 -0.0191,0.91742 h -15.13733 q 0.19113,3.34474 1.89217,5.12223 1.70104,1.77749 4.24304,1.77749 1.89217,0 3.23006,-0.99387 1.3379,-0.99387 2.12152,-3.17272 z m -11.29566,-5.56183 h 11.33389 q -0.22936,-2.56111 -1.29967,-3.84167 -1.6437,-1.98773 -4.26216,-1.98773 -2.36998,0 -3.99457,1.58636 -1.60547,1.58636 -1.77749,4.24304 z"
                style="font-family:Arial;-inkscape-font-specification:Arial;fill:#ffffff"
                id="path4174"
                inkscape:connector-curvature="0"/>
        <path
                d="m 557.13502,220.164 v -2.56111 q -1.93039,3.01982 -5.6765,3.01982 -2.42732,0 -4.47239,-1.3379 -2.02596,-1.33789 -3.15361,-3.72699 -1.10855,-2.40821 -1.10855,-5.5236 0,-3.03893 1.01298,-5.50448 1.01298,-2.48467 3.03894,-3.80345 2.02595,-1.31878 4.52973,-1.31878 1.83483,0 3.26829,0.78362 1.43346,0.76451 2.33176,2.00685 v -10.05333 h 3.42119 V 220.164 Z m -10.87518,-10.12978 q 0,3.89901 1.6437,5.8294 1.6437,1.9304 3.8799,1.9304 2.25531,0 3.82256,-1.83483 1.58636,-1.85394 1.58636,-5.63828 0,-4.16659 -1.60548,-6.11609 -1.60547,-1.94951 -3.95634,-1.94951 -2.29354,0 -3.84168,1.87306 -1.52902,1.87305 -1.52902,5.90585 z"
                style="font-family:Arial;-inkscape-font-specification:Arial;fill:#ffffff"
                id="path4176"
                inkscape:connector-curvature="0"/>
        <path
                d="m 565.12416,221.84593 3.34474,0.49693 q 0.21024,1.54814 1.16588,2.25531 1.28055,0.95564 3.49764,0.95564 2.3891,0 3.68877,-0.95564 1.29967,-0.95564 1.75837,-2.67579 0.26758,-1.05121 0.24847,-4.41506 -2.25531,2.65668 -5.61916,2.65668 -4.1857,0 -6.47924,-3.01982 -2.29353,-3.01982 -2.29353,-7.24375 0,-2.90514 1.0512,-5.35158 1.0512,-2.46555 3.03893,-3.80345 2.00685,-1.33789 4.70175,-1.33789 3.59321,0 5.92497,2.90514 v -2.44644 h 3.17272 v 17.54555 q 0,4.73997 -0.97475,6.70859 -0.95564,1.98773 -3.05805,3.1345 -2.08329,1.14677 -5.14134,1.14677 -3.63143,0 -5.86763,-1.6437 -2.23619,-1.62459 -2.15974,-4.91199 z m 2.8478,-12.19397 q 0,3.99458 1.58637,5.82941 1.58636,1.83483 3.97546,1.83483 2.36998,0 3.97546,-1.81572 1.60547,-1.83483 1.60547,-5.73384 0,-3.72699 -1.66281,-5.61916 -1.6437,-1.89217 -3.97546,-1.89217 -2.29354,0 -3.89901,1.87306 -1.60548,1.85394 -1.60548,5.52359 z"
                style="font-family:Arial;-inkscape-font-specification:Arial;fill:#ffffff"
                id="path4178"
                inkscape:connector-curvature="0"/>
        <path
                d="m 601.43845,213.62743 3.55498,0.43959 q -0.84096,3.11539 -3.11538,4.83554 -2.27442,1.72015 -5.81029,1.72015 -4.45328,0 -7.07173,-2.73313 -2.59934,-2.75224 -2.59934,-7.70246 0,-5.12223 2.63756,-7.95092 2.63757,-2.82869 6.84238,-2.82869 4.07103,0 6.65125,2.77135 2.58023,2.77136 2.58023,7.79802 0,0.30581 -0.0191,0.91742 h -15.13733 q 0.19112,3.34474 1.89216,5.12223 1.70104,1.77749 4.24304,1.77749 1.89217,0 3.23006,-0.99387 1.3379,-0.99387 2.12152,-3.17272 z m -11.29566,-5.56183 h 11.33389 q -0.22935,-2.56111 -1.29967,-3.84167 -1.6437,-1.98773 -4.26215,-1.98773 -2.36999,0 -3.99458,1.58636 -1.60547,1.58636 -1.77749,4.24304 z"
                style="font-family:Arial;-inkscape-font-specification:Arial;fill:#ffffff"
                id="path4180"
                inkscape:connector-curvature="0"/>
      </g>
      <path
              id="path2993"
              d="M 5.025,146.484 C 294.106,-3.349 465.863,5.123 465.863,5.123 c 0,156.45 -0.04,141.536 -0.04,141.536 z M 7.159,99.182 47.656,96.675 c 0.877,6.499 2.662,11.451 5.356,14.855 4.385,5.509 10.649,8.263 18.792,8.263 6.076,0 10.743,-1.393 14,-4.178 3.32,-2.847 4.98,-6.128 4.98,-9.842 0,-3.528 -1.566,-6.685 -4.698,-9.47 C 82.954,93.518 75.688,90.887 64.287,88.411 45.62,84.264 32.309,78.755 24.354,71.884 16.336,65.013 12.327,56.255 12.327,45.609 c 0,-6.994 2.036,-13.586 6.107,-19.776 4.134,-6.251 10.304,-11.141 18.51,-14.67 8.269,-3.59 19.575,-5.385 33.92,-5.385 17.602,0 31.007,3.25 40.215,9.749 9.271,6.437 14.783,16.712 16.537,30.825 L 87.495,48.673 C 86.43,42.545 84.175,38.089 80.73,35.303 77.347,32.518 72.649,31.125 66.636,31.125 c -4.949,0 -8.676,1.052 -11.181,3.157 -2.506,2.043 -3.758,4.55 -3.758,7.52 0,2.166 1.033,4.116 3.101,5.849 2.004,1.795 6.765,3.466 14.282,5.014 18.604,3.962 31.915,7.985 39.933,12.07 8.081,4.023 13.937,9.037 17.571,15.041 3.696,6.004 5.544,12.72 5.544,20.148 0,8.728 -2.443,16.774 -7.329,24.14 -4.886,7.366 -11.714,12.967 -20.483,16.805 -8.77,3.776 -19.826,5.664 -33.168,5.664 -23.428,0 -39.651,-4.457 -48.672,-13.37 C 13.456,124.25 8.351,112.923 7.16,99.181 M 150.348,51.11 h 29.178 v 95.453 H 150.348 V 51.11 m 50.194,0 h 27.186 l 35.477,51.504 V 51.11 h 27.443 v 95.51 H 263.893 L 227.922,93.088 v 53.504 h -27.531 l 0.152,-95.482 m 183.282,43.8 V 66.592 h 65.772 v 58.029 c -12.591,8.48 -23.741,14.267 -33.45,17.362 -9.647,3.033 -21.11,4.549 -34.39,4.549 -16.349,0 -29.692,-2.754 -40.027,-8.263 -10.273,-5.509 -18.26,-13.71 -23.96,-24.604 -5.638,-10.894 -8.456,-23.397 -8.456,-37.51 0,-14.855 3.101,-27.761 9.302,-38.717 6.201,-11.018 15.284,-19.374 27.249,-25.068 9.333,-4.395 21.893,-6.592 37.678,-6.592 15.222,0 26.591,1.362 34.108,4.085 7.579,2.724 13.843,6.964 18.792,12.72 5.011,5.695 8.77,12.937 11.275,21.726 l -41.061,7.242 c -1.691,-5.137 -4.573,-9.068 -8.644,-11.791 -4.009,-2.723 -9.146,-4.085 -15.41,-4.085 -9.333,0 -16.788,3.219 -22.363,9.656 -5.512,6.376 -8.269,16.496 -8.269,30.361 0,14.732 2.787,25.254 8.363,31.568 5.638,6.314 13.468,9.47 23.49,9.47 4.761,0 9.302,-0.681 13.624,-2.043 4.322,-1.362 9.271,-3.683 14.846,-6.963 V 94.911 h -28.47"
              inkscape:connector-curvature="0"
              style="fill-rule:evenodd;fill:#ffffff"/>
    </g>
  </g>
</svg>
